<?xml version="1.0" encoding="utf-8"?>
<!-- Generator: Adobe Illustrator 16.0.0, SVG Export Plug-In . SVG Version: 6.00 Build 0)  -->
<!DOCTYPE svg PUBLIC "-//W3C//DTD SVG 1.1//EN" "http://www.w3.org/Graphics/SVG/1.1/DTD/svg11.dtd">
<svg version="1.1" id="Layer_1" xmlns="http://www.w3.org/2000/svg" xmlns:xlink="http://www.w3.org/1999/xlink" x="0px" y="0px"
	 width="542.685px" height="173.795px" viewBox="0 0 542.685 173.795" enable-background="new 0 0 542.685 173.795"
	 xml:space="preserve">
<g>
	<g>
		<g>
			<path fill="#FFFFFF" d="M160.506,76.175c0-4.945,1.725-8.792,5.177-11.537c3.451-2.744,8.247-4.117,14.391-4.117
				c5.979,0,10.748,1.427,14.309,4.28c3.56,2.854,5.449,6.781,5.667,11.781h-7.501c-0.055-1.412-0.408-2.703-1.061-3.872
				c-0.651-1.169-1.549-2.174-2.69-3.018c-1.142-0.842-2.486-1.494-4.035-1.956c-1.55-0.462-3.275-0.693-5.178-0.693
				c-3.588,0-6.441,0.829-8.561,2.486c-2.12,1.659-3.18,3.873-3.18,6.646c0,1.686,0.379,3.085,1.141,4.199
				c0.761,1.114,1.794,2.038,3.099,2.771c1.305,0.734,2.813,1.333,4.525,1.794c1.712,0.463,3.491,0.884,5.34,1.264
				c2.283,0.489,4.566,1.02,6.849,1.59c2.283,0.571,4.349,1.4,6.197,2.487c1.847,1.088,3.343,2.5,4.484,4.239
				c1.141,1.74,1.712,4.05,1.712,6.931c0,4.838-1.672,8.602-5.015,11.292s-8.222,4.036-14.635,4.036
				c-3.371,0-6.415-0.381-9.132-1.142c-2.719-0.761-5.042-1.848-6.971-3.262c-1.93-1.412-3.424-3.125-4.484-5.136
				s-1.59-4.267-1.59-6.768h7.338c0.489,3.099,2.039,5.503,4.647,7.216c2.609,1.712,5.952,2.568,10.029,2.568
				c3.913,0,6.971-0.761,9.172-2.283c2.202-1.521,3.303-3.614,3.303-6.278c0-1.575-0.381-2.866-1.142-3.873
				c-0.762-1.005-1.794-1.82-3.099-2.445c-1.305-0.624-2.813-1.142-4.524-1.55c-1.713-0.407-3.494-0.801-5.341-1.182
				c-2.283-0.489-4.566-1.032-6.849-1.631c-2.283-0.598-4.35-1.48-6.197-2.649c-1.849-1.169-3.343-2.718-4.484-4.647
				C161.077,81.788,160.506,79.272,160.506,76.175z"/>
			<path fill="#FFFFFF" d="M234.538,61.336c3.207,0,6.115,0.448,8.724,1.345c2.609,0.897,4.838,2.161,6.687,3.792
				c1.847,1.63,3.273,3.601,4.28,5.911c1.005,2.311,1.508,4.879,1.508,7.704c0,2.827-0.503,5.422-1.508,7.787
				c-1.007,2.364-2.434,4.39-4.28,6.074c-1.849,1.686-4.077,2.989-6.687,3.913c-2.608,0.925-5.517,1.387-8.724,1.387H221.33v16.714
				h-7.094V61.336H234.538z M233.805,92.726c4.456,0,8.003-1.127,10.64-3.384c2.636-2.255,3.954-5.285,3.954-9.091
				c0-3.75-1.318-6.753-3.954-9.009c-2.637-2.255-6.184-3.384-10.64-3.384H221.33v24.867H233.805z"/>
			<path fill="#FFFFFF" d="M267.15,61.336h37.505v6.522h-30.411v17.855h25.846v6.115h-25.846v17.611h30.411v6.522H267.15V61.336z"/>
			<path fill="#FFFFFF" d="M312.81,88.649c0-3.967,0.692-7.664,2.078-11.089c1.387-3.424,3.303-6.4,5.749-8.928
				c2.445-2.527,5.34-4.511,8.683-5.952c3.343-1.439,6.943-2.16,10.804-2.16c3.261,0,6.318,0.422,9.172,1.264
				c2.854,0.843,5.422,2.052,7.705,3.628c2.283,1.577,4.226,3.534,5.83,5.87c1.603,2.338,2.813,4.974,3.628,7.909h-7.99
				c-1.414-3.751-3.751-6.645-7.012-8.684c-3.262-2.038-7.04-3.058-11.333-3.058c-2.827,0-5.45,0.544-7.868,1.631
				c-2.419,1.088-4.525,2.583-6.319,4.484c-1.793,1.903-3.207,4.146-4.239,6.727c-1.033,2.582-1.549,5.368-1.549,8.357
				c0,2.99,0.516,5.776,1.549,8.357c1.032,2.582,2.446,4.824,4.239,6.726c1.794,1.903,3.9,3.398,6.319,4.484
				c2.418,1.089,5.041,1.631,7.868,1.631c4.293,0,8.071-1.019,11.333-3.058c3.261-2.038,5.598-4.933,7.012-8.683h7.99
				c-0.815,2.935-2.025,5.572-3.628,7.908c-1.604,2.338-3.547,4.295-5.83,5.87c-2.283,1.578-4.852,2.787-7.705,3.629
				s-5.911,1.264-9.172,1.264c-3.86,0-7.461-0.721-10.804-2.161c-3.343-1.439-6.237-3.424-8.683-5.951
				c-2.446-2.528-4.362-5.504-5.749-8.929C313.502,96.313,312.81,92.617,312.81,88.649z"/>
			<path fill="#FFFFFF" d="M390.51,67.858h-19.568v-6.522h46.229v6.522h-19.568v48.104h-7.093V67.858z"/>
			<path fill="#FFFFFF" d="M426.139,61.336h37.505v6.522h-30.411v17.855h25.846v6.115h-25.846v17.611h30.411v6.522h-37.505V61.336z"
				/>
			<path fill="#FFFFFF" d="M498.213,61.336c3.099,0,5.871,0.381,8.316,1.142c2.446,0.762,4.538,1.862,6.278,3.302
				c1.739,1.44,3.07,3.18,3.995,5.218c0.924,2.038,1.386,4.336,1.386,6.89c0,3.914-1.088,7.229-3.261,9.947
				c-2.175,2.719-5.3,4.647-9.377,5.789l13.29,22.34h-8.397L498.05,94.52h-14.268v21.443h-7.094V61.336H498.213z M497.479,88.404
				c4.239,0,7.527-0.896,9.865-2.69c2.337-1.794,3.506-4.321,3.506-7.582c0-3.262-1.169-5.789-3.506-7.583
				c-2.338-1.794-5.626-2.69-9.865-2.69h-13.697v20.546H497.479z"/>
		</g>
	</g>
	<g>
		<linearGradient id="SVGID_1_" gradientUnits="userSpaceOnUse" x1="17.979" y1="91.0137" x2="129.395" y2="91.0137">
			<stop  offset="0" style="stop-color:#EEC32D"/>
			<stop  offset="0.4544" style="stop-color:#F5AB23"/>
			<stop  offset="1" style="stop-color:#FF8915"/>
		</linearGradient>
		<path fill="url(#SVGID_1_)" d="M128.017,120.061c-2.876,3.879-9.846,5.479-9.846,5.479s-3.974,3.174-12.124,2.482
			c-8.162-0.693-18.103-7.555-24.069-4.082c-1.205,0.705-2.053,2.053-2.649,3.746c-2.291,6.684-0.489,18.832-0.489,18.832
			c-0.537-0.119-1.086-0.334-1.646-0.621c-3.64-1.873-7.447-6.693-7.447-6.693c-1.491,5.369,2.244,19.402,2.244,19.402
			c-28.354-12.84-35.203-35.656-35.203-35.656c-1.35,2.244-1.193,10.74-1.193,10.74c-17.161-18.498-12.686-41.17-12.686-41.17
			c-1.945,0.895-4.929,4.916-4.929,4.916c3.138-24.464,24.32-47.28,24.32-47.28s7.899-26.109,18.497-26.707
			C71.393,22.853,71.99,47.315,71.99,47.315c1.062-0.621,4.904-3.293,9.785-6.646c10.633-7.291,26.182-17.828,28.545-17.221
			c0.572,0.145,0.835,0.586,0.871,1.254c0.023,0.584-0.132,1.324-0.43,2.195c-1.372,4.033-5.692,10.572-8.055,14.166
			c-3.426,5.215-4.464,12.373-5.967,16.705c-0.048,0.145-0.096,0.299-0.132,0.467c-0.096,0.441-0.119,0.979-0.096,1.563v0.012
			c0,0.191,0.013,0.395,0.036,0.609c0.466,5.607,4.929,15.381,7.112,17.982c2.578,3.08,1.289,5.264,0.299,9.143
			c-1.003,3.877,19.785,21.288,22.268,23.173c1.539,1.17,2.972,2.984,3.15,5.119C129.485,117.15,129.115,118.582,128.017,120.061z"
			/>
		<linearGradient id="SVGID_2_" gradientUnits="userSpaceOnUse" x1="41.4771" y1="81.542" x2="58.9795" y2="196.501">
			<stop  offset="0" style="stop-color:#D46E0B"/>
			<stop  offset="0.5917" style="stop-color:#EC7D11;stop-opacity:0.4083"/>
			<stop  offset="1" style="stop-color:#FF8915;stop-opacity:0"/>
		</linearGradient>
		<path fill="url(#SVGID_2_)" d="M69.746,139.203c-1.408,5.082,1.85,17.898,2.22,19.283c0.013,0.084,0.024,0.119,0.024,0.119
			c-28.354-12.84-35.203-35.656-35.203-35.656c-1.35,2.244-1.193,10.74-1.193,10.74c-17.161-18.498-12.686-41.17-12.686-41.17
			c-1.886,0.871-4.738,4.654-4.917,4.904c-0.012,0.012-0.012,0.012-0.012,0.012c3.138-24.464,24.32-47.28,24.32-47.28
			s-2.685,13.58,2.983,24.32c0,0-6.266-4.773-6.42-7.756c0,0-8.497,20.883-3.58,35.347c0,0,1.002-9.404,4.236-13.724
			c0,0-3.33,28.341,16.504,45.644c0,0-3.724-11.336-3.58-17.303c0,0,8.496,14.166,14.618,17.303c0,0-0.597-6.121,1.038-10.297
			c0,0,3.246,13.508,9.094,22.207C73.553,144.023,69.746,139.203,69.746,139.203z"/>
		<linearGradient id="SVGID_3_" gradientUnits="userSpaceOnUse" x1="58.1865" y1="54.8857" x2="68.032" y2="5.6584">
			<stop  offset="0" style="stop-color:#D46E0B"/>
			<stop  offset="0.5917" style="stop-color:#EC7D11;stop-opacity:0.4083"/>
			<stop  offset="1" style="stop-color:#FF8915;stop-opacity:0"/>
		</linearGradient>
		<path fill="url(#SVGID_3_)" d="M60.1,28.675c-7.377,0-16.011,33.912-10.84,37.691c5.171,3.777,13.127-2.287,17.403-7.061
			C70.939,54.532,68.454,28.675,60.1,28.675z"/>
		<linearGradient id="SVGID_4_" gradientUnits="userSpaceOnUse" x1="87.4561" y1="60.1865" x2="116.9914" y2="25.8779">
			<stop  offset="0" style="stop-color:#D46E0B"/>
			<stop  offset="0.5917" style="stop-color:#EC7D11;stop-opacity:0.4083"/>
			<stop  offset="1" style="stop-color:#FF8915;stop-opacity:0"/>
		</linearGradient>
		<path fill="url(#SVGID_4_)" d="M110.761,26.897c-1.372,4.033-5.692,10.572-8.055,14.166c-3.426,5.215-4.464,12.373-5.967,16.705
			c-0.191,0.537-0.263,1.23-0.228,2.029c-0.883-3.449-4.761-5.572-4.761-5.572C92.945,52.733,96,51.493,96,51.493
			c-2.53-0.67-7.256-0.443-7.256-0.443s14.32-19.988,17.304-22.375C107.766,27.292,109.568,26.944,110.761,26.897z"/>
		<linearGradient id="SVGID_5_" gradientUnits="userSpaceOnUse" x1="104.1602" y1="111.5371" x2="85.3675" y2="160.4576">
			<stop  offset="0" style="stop-color:#D46E0B"/>
			<stop  offset="0.5917" style="stop-color:#EC7D11;stop-opacity:0.4083"/>
			<stop  offset="1" style="stop-color:#FF8915;stop-opacity:0"/>
		</linearGradient>
		<path fill="url(#SVGID_5_)" d="M118.171,125.539c0,0-3.974,3.174-12.124,2.482c-8.162-0.693-18.103-7.555-24.069-4.082
			c-1.205,0.705-2.053,2.053-2.649,3.746c0.334-4.033,2.625-10.75,7.649-11.67c6.038-1.121,11.109,7.232,17.005,9.523
			C109.866,127.83,118.171,125.539,118.171,125.539z"/>
		<linearGradient id="SVGID_6_" gradientUnits="userSpaceOnUse" x1="42.2266" y1="102.1611" x2="60.4251" y2="168.3917">
			<stop  offset="0" style="stop-color:#B95B00"/>
			<stop  offset="0.3843" style="stop-color:#D16B07;stop-opacity:0.6157"/>
			<stop  offset="1" style="stop-color:#FF8915;stop-opacity:0"/>
		</linearGradient>
		<path fill="url(#SVGID_6_)" d="M69.746,139.203c-1.408,5.082,1.85,17.898,2.22,19.283c-8.831-8.52-12.661-26.193-12.661-26.193
			c-0.203,1.396,0,8.76,0,8.76c-20.191-14.918-22.279-36.672-22.279-36.672c-1.791,1.719-2.482,10.215-2.482,10.215
			c-9.152-23.771,1.396-45.144,1.396-45.144c-8.914,5.18-17.686,27.278-17.948,27.972c-0.012,0.012-0.012,0.012-0.012,0.012
			c3.138-24.464,24.32-47.28,24.32-47.28s-2.685,13.58,2.983,24.32c0,0-6.266-4.773-6.42-7.756c0,0-8.497,20.883-3.58,35.347
			c0,0,1.002-9.404,4.236-13.724c0,0-3.33,28.341,16.504,45.644c0,0-3.724-11.336-3.58-17.303c0,0,8.496,14.166,14.618,17.303
			c0,0-0.597-6.121,1.038-10.297c0,0,3.246,13.508,9.094,22.207C73.553,144.023,69.746,139.203,69.746,139.203z"/>
		<linearGradient id="SVGID_7_" gradientUnits="userSpaceOnUse" x1="71.3931" y1="78.2891" x2="129.3774" y2="78.2891">
			<stop  offset="0" style="stop-color:#EEC32D"/>
			<stop  offset="0.8974" style="stop-color:#FEBE45"/>
			<stop  offset="0.9675" style="stop-color:#FFBE47"/>
		</linearGradient>
		<path fill="url(#SVGID_7_)" d="M129.377,115.836c-0.525,0.049-0.859,0.072-0.859,0.072s-27.447-24.606-27.053-27.78
			c0.405-3.162,1.694-7.447,0.405-9.727c-1.301-2.291-8.329-13.232-7.852-15.322c0.489-2.088-0.406-6.063-2.196-7.16
			c-1.79-1.086-5.274-1.086-5.274-1.086s2.983-2.434,4.582-2.588c0,0-16.468-0.98-19.737,1.395l0.597-6.324
			c1.062-0.621,4.904-3.293,9.785-6.646c-0.967,2.553-4.869,9.594-4.177,9.535c5.06-0.43,12.565-0.598,18.401,1.289
			c0,0-2.936,1.67-3.604,2.744c0,0,2.374,1.277,4.212,3.998c-0.096,0.441-0.119,0.979-0.096,1.563v0.012
			c0,0.191,0.013,0.395,0.036,0.609c0.466,5.607,4.929,15.381,7.112,17.982c2.578,3.08,1.289,5.264,0.299,9.143
			c-1.003,3.877,19.785,21.288,22.268,23.173C127.766,111.887,129.199,113.701,129.377,115.836z"/>
		<linearGradient id="SVGID_8_" gradientUnits="userSpaceOnUse" x1="85.3711" y1="94.6201" x2="85.3711" y2="85.5026">
			<stop  offset="0" style="stop-color:#000D1D"/>
			<stop  offset="0.9675" style="stop-color:#001121"/>
		</linearGradient>
		<path fill="url(#SVGID_8_)" d="M94.023,91.325c0,0-3.021-6.301-3.953-6.6c-0.932-0.299-13.351,2.648-13.351,2.648l4.96-0.113
			c0,0,1.306,2.324,4.027,3.754c2.723,1.431,6.452-0.434,6.452-0.434L94.023,91.325z"/>
		<linearGradient id="SVGID_9_" gradientUnits="userSpaceOnUse" x1="124.3032" y1="127.207" x2="124.3032" y2="113.9148">
			<stop  offset="0" style="stop-color:#000D1D"/>
			<stop  offset="0.9675" style="stop-color:#001121"/>
		</linearGradient>
		<path fill="url(#SVGID_9_)" d="M131.204,115.488c0.11,1.16-2.409,6.27-6.09,7.16c-0.229,0.061-0.47,0.09-0.7,0.09
			c-3.46,0.051-6.939-5.41-7.01-6.279c-0.07-0.93,0.86-3.451,1.38-3.631c0.32-0.109,3.66-0.08,6.29-0.049
			c1.601,0.02,2.94,0.049,3.181,0.049C128.254,112.828,131.094,114.338,131.204,115.488z"/>
		<linearGradient id="SVGID_10_" gradientUnits="userSpaceOnUse" x1="127.8101" y1="127.1943" x2="127.8101" y2="113.9398">
			<stop  offset="0" style="stop-color:#000D1D"/>
			<stop  offset="0.9675" style="stop-color:#31344D"/>
		</linearGradient>
		<path fill="url(#SVGID_10_)" d="M131.204,115.488c0.11,1.16-2.409,6.27-6.09,7.16c-0.229,0.061-0.47,0.09-0.7,0.09
			c3.33-1.439,5.08-5.76,4.78-6.6c-0.34-0.92-2.63-1.25-2.63-1.25h2.33l-3.82-2.1v-0.01c1.601,0.02,2.94,0.049,3.181,0.049
			C128.254,112.828,131.094,114.338,131.204,115.488z"/>
	</g>
</g>
</svg>
